<mxfile host="65bd71144e">
    <diagram id="hwPg-LM24VIjOCkEtbRY" name="Page-1">
        <mxGraphModel dx="1414" dy="1890" grid="1" gridSize="10" guides="1" tooltips="1" connect="1" arrows="1" fold="1" page="1" pageScale="1" pageWidth="827" pageHeight="1169" math="0" shadow="0">
            <root>
                <mxCell id="0"/>
                <mxCell id="1" parent="0"/>
                <mxCell id="2" value="Recipe App" style="rounded=1;whiteSpace=wrap;html=1;" vertex="1" parent="1">
                    <mxGeometry x="770" y="270" width="120" height="60" as="geometry"/>
                </mxCell>
                <mxCell id="4" value="" style="ellipse;whiteSpace=wrap;html=1;" vertex="1" parent="1">
                    <mxGeometry x="640" y="-80" width="360" height="210" as="geometry"/>
                </mxCell>
                <mxCell id="5" value="&lt;h3&gt;&lt;b&gt;MVP:&amp;nbsp;&lt;br&gt; &lt;/b&gt;&lt;span style=&quot;font-weight: normal;&quot;&gt;List of recipes (left side)&lt;br&gt;Main component to display selected recipes&lt;br&gt;Add recipes&lt;/span&gt;&lt;/h3&gt;&lt;br&gt;&lt;b&gt;Stretch goals:&lt;/b&gt;&lt;br&gt;Edit recipes&lt;br&gt;sort recipes" style="text;strokeColor=none;align=center;fillColor=none;html=1;verticalAlign=middle;whiteSpace=wrap;rounded=0;" vertex="1" parent="1">
                    <mxGeometry x="690" y="-20" width="280" height="60" as="geometry"/>
                </mxCell>
                <mxCell id="6" value="&lt;h1&gt;Component Tree&lt;/h1&gt;" style="text;strokeColor=none;align=center;fillColor=none;html=1;verticalAlign=middle;whiteSpace=wrap;rounded=0;" vertex="1" parent="1">
                    <mxGeometry x="720" y="220" width="220" height="30" as="geometry"/>
                </mxCell>
                <mxCell id="7" value="Recipe list" style="rounded=1;whiteSpace=wrap;html=1;" vertex="1" parent="1">
                    <mxGeometry x="200" y="205" width="120" height="60" as="geometry"/>
                </mxCell>
                <mxCell id="8" value="Recipies (ingredients and method)" style="rounded=1;whiteSpace=wrap;html=1;" vertex="1" parent="1">
                    <mxGeometry x="200" y="430" width="120" height="60" as="geometry"/>
                </mxCell>
                <mxCell id="9" value="Header" style="rounded=1;whiteSpace=wrap;html=1;" vertex="1" parent="1">
                    <mxGeometry x="520" y="360" width="120" height="60" as="geometry"/>
                </mxCell>
                <mxCell id="10" value="Menu bar (recipe list)" style="rounded=1;whiteSpace=wrap;html=1;" vertex="1" parent="1">
                    <mxGeometry x="200" y="310" width="120" height="60" as="geometry"/>
                </mxCell>
                <mxCell id="13" value="Footer" style="rounded=1;whiteSpace=wrap;html=1;" vertex="1" parent="1">
                    <mxGeometry x="960" y="340" width="120" height="60" as="geometry"/>
                </mxCell>
                <mxCell id="14" value="Form" style="rounded=1;whiteSpace=wrap;html=1;" vertex="1" parent="1">
                    <mxGeometry x="670" y="360" width="120" height="60" as="geometry"/>
                </mxCell>
            </root>
        </mxGraphModel>
    </diagram>
</mxfile>